<svg xmlns="http://www.w3.org/2000/svg" width="30" height="30">
    <defs>
        <filter id="a">
            <feFlood flood-color="#666" flood-opacity="1" result="floodOut"/>
            <feComposite operator="atop" in="floodOut" in2="SourceGraphic" result="compOut"/>
            <feBlend in="compOut" in2="SourceGraphic"/>
        </filter>
    </defs>
    <g filter="url(#a)">
        <path fill-rule="evenodd" fill="#666" d="M14.985 30C6.718 30 .8 23.227.8 14.903.8 6.685 6.718 0 14.985 0c8.268 0 14.994 6.728 14.994 14.999S23.253 30 14.985 30zm10.435-6.794h-3.855a27.264 27.264 0 0 1-2.77 4.22c2.48-.764 4.644-2.253 6.625-4.22zm-3.516-8.689c0-1.97-.352-3.706-.664-5.214H9.2c-.725 1.508-1.077 3.244-1.077 5.214 0 2.455.709 4.766 1.639 6.758h10.503c.93-1.992 1.639-4.303 1.639-6.758zm-7.559 13.45c.213.01.424.033.64.033.236 0 .466-.023.699-.036.036-.053.06-.113.108-.16.033-.032 1.823-1.825 3.458-4.598h-8.473c1.635 2.773 3.425 4.566 3.458 4.598.048.048.073.108.11.163zm-3.103-.528a27.23 27.23 0 0 1-2.781-4.233H4.955a13.002 13.002 0 0 0 6.287 4.233zM3.308 9.303C2.481 11 2.3 12.895 2.3 14.903c0 2.313.306 4.484 1.354 6.372h3.893c-.836-2.017-1.436-4.309-1.436-6.758 0-1.945.303-3.675.769-5.214H3.308zm1.158-1.931H7.58a17.89 17.89 0 0 1 2.867-4.543c-2.157.902-4.493 2.495-5.981 4.543zm11.455-5.264c-.025.802-.038.532-.061.332-.291-.2-.58-.441-.875-.441-.275 0-.544.241-.815.411-.024.2-.038.49-.065-.302.565.027-2.519 1.817-4.274 5.264h10.364c-1.754-3.447-4.235-5.237-4.274-5.264zm3.692.76a17.875 17.875 0 0 1 2.833 4.504h3.029c-.775-2.019-3.498-3.596-5.862-4.504zm3.534 6.435c.465 1.539.769 3.269.769 5.214 0 2.449-.6 4.741-1.437 6.758h3.868c1.03-1.862 1.62-4 1.62-6.276 0-2.044-.487-3.739-1.33-5.696h-3.49zm-10.592 1.603 7.121 4.325-7.121 4.326v-8.651z"/>
    </g>
</svg>
