<?xml version="1.0"?>
<!--Icons from directory ""-->
<svg xmlns="http://www.w3.org/2000/svg" width="32" height="168" viewBox="0 0 32 168"><svg data-name="Layer 1" viewBox="0 0 128 128" width="32" height="32" id="facebook" y="0"><path d="M53.68 38.26v15.1H37.11V72h16.57v42h19.61V72H90l2-18.63H73.29V38.26c0-2.67 2.11-4 3-4.82 1.57-1.34 9.15-1.55 9.15-1.55h7.43V15a93.26 93.26 0 00-11.68-1c-28.08 0-27.51 24.26-27.51 24.26z" fill="none" stroke="#062b31" stroke-miterlimit="10" stroke-width="6.5"/></svg><svg height="24" width="24" id="folder" y="32"><path d="M21 8a2 2 0 012 2l-.024.217-1.98 8.91A2 2 0 0119 21H3a2 2 0 01-2-2V5a2 2 0 012-2h6c1.12 0 1.833.475 2.549 1.379.048.06.261.337.313.402.158.195.19.219.14.219H19a2 2 0 012 2v1zm-2 0V7h-7.005c-.719-.004-1.186-.34-1.69-.963-.069-.086-.29-.373-.323-.416C9.607 5.15 9.384 5 9 5H3v4.891l.03-.13C3.31 8.62 3.832 8 5 8h14zM3.024 19H19l.024-.217L20.976 10H5.036c-.015.05-.036.121-.06.217L3.024 19z" fill-rule="evenodd"/></svg><svg height="24" width="24" id="image" y="56"><path d="M4 15.586l4-4 3.5 3.5 6.5-6.5 2 2V4H4v11.586zm0 2.828V20h9.586L8 14.414l-4 4zM16.414 20H20v-6.586l-2-2-5.086 5.086 3.5 3.5zM4 2h16a2 2 0 012 2v16a2 2 0 01-2 2H4a2 2 0 01-2-2V4a2 2 0 012-2zm7 3a3 3 0 110 6 3 3 0 010-6zm0 2a1 1 0 100 2 1 1 0 000-2z" fill-rule="evenodd"/></svg><svg data-name="Layer 1" id="linkedin" viewBox="0 0 128 128" width="32" height="32" y="80"><defs><style>.cls-1{fill:#062b31}</style></defs><path class="cls-1" d="M106.09 20.5a1.41 1.41 0 011.41 1.41v84.19a1.41 1.41 0 01-1.41 1.41H21.91a1.41 1.41 0 01-1.41-1.41V21.91a1.41 1.41 0 011.41-1.41h84.19m0-6.5H21.91A7.91 7.91 0 0014 21.91v84.19a7.91 7.91 0 007.91 7.9h84.19a7.91 7.91 0 007.91-7.91V21.91a7.91 7.91 0 00-7.92-7.91z"/><path class="cls-1" d="M37.27 50.4H49v41.73H37.27zM77.23 50.4C67.18 50.4 67 56.21 67 56.61V50.4H55v41.73h12V68.31c0-1.86.55-5.86 6.23-5.86s5.63 5.73 5.63 5.73v24h11.87v-26c0-12.33-6.73-15.78-13.5-15.78z"/><circle class="cls-1" cx="43.13" cy="41.73" r="5.86"/></svg><svg height="24" width="24" id="thumbs" y="112"><path d="M7.653 21.126C7.293 21.653 6.687 22 6 22H4a2 2 0 01-2-2v-9a2 2 0 012-2h2a2 2 0 01.57.083c1.074-1.565 4.685-5.509 5.65-6.71l.3-.374H13c.615 0 1.142.046 1.748.223C16.092 2.612 17 3.527 17 4.999c0 .52-.092 1.075-.262 1.69-.112.407-.25.819-.44 1.329l-.343.905-.028.076H19c1.87 0 3 1.318 3 3 0 5.944-1.245 10-4 10h-6.966a6.741 6.741 0 01-2.37-.382 4.885 4.885 0 01-1.01-.491zM8 17.999c0 .902.452 1.419 1.337 1.735a4.81 4.81 0 001.626.266H18c1.015 0 2-3.21 2-8 0-.641-.309-1-1-1h-4c-1.195 0-1.444-.925-1.195-1.925.058-.235.144-.494.274-.845.057-.154.29-.765.344-.91.171-.46.293-.821.387-1.162.126-.457.19-.842.19-1.159 0-.45-.238-.69-.81-.857a3.501 3.501 0 00-.73-.128c-1.546 1.848-5.053 5.687-5.318 6.305-.098.227-.142.44-.142.68v7zM4 11v9h2v-9H4z" fill-rule="evenodd"/></svg><svg data-name="Layer 1" viewBox="0 0 128 128" width="32" height="32" id="twitter" y="136"><path d="M86.94 30.66a19.58 19.58 0 0114 6.17s7.64-1.5 11.86-4.47c0 0-1.06 5.88-8.09 10.38h.06c.54 0 4.48-.1 10.68-3 0 0-1.19 3.39-9.3 9.84.49 15.26-7.06 43.47-35 53.51A56.36 56.36 0 0152 106.52a53.69 53.69 0 01-29.5-8.67c1.5.15 2.85.15 4.2.15 16.52 0 24.52-8.48 24.08-8.48h-.61c-14 0-17.41-13.4-17.41-13.4a6.46 6.46 0 003.73.92 20.4 20.4 0 005-.73c-15.8-3.74-15.21-18.9-15.21-18.9a13.45 13.45 0 007.2 2.26 7 7 0 001.26-.1C20.31 48.15 29 34.52 29 34.52c16.26 18.87 36.25 19.54 39 19.54h.33c-1.48-8.86 2.17-17.37 12-22a15.35 15.35 0 016.54-1.4M122 18l-12.93 9.08a23.93 23.93 0 01-6.34 2.65 26.16 26.16 0 00-15.83-5.54 21.69 21.69 0 00-9.3 2c-9.18 4.31-14.76 11.75-15.87 20.68a49.25 49.25 0 01-27.79-16.59l-5.7-6.61-4.7 7.33a25.19 25.19 0 00-3.4 16.66l-.37 9.53a26.24 26.24 0 005.69 16.68l1 3.9a26.17 26.17 0 008.36 12.89 37.24 37.24 0 01-8.13.86c-1.19 0-2.42-.05-3.66-.15L.1 89.46l18.55 13.63A60.21 60.21 0 0052 113a63 63 0 0021.38-3.8 57.06 57.06 0 0031.7-27.91 68.92 68.92 0 007.57-28.65c6.63-5.71 8.45-9.35 8.94-10.74l5.12-14.57-7 3.26L122 18z" fill="#062b31"/></svg></svg>
