<svg xmlns="http://www.w3.org/2000/svg">
  <defs>
		<style>
		.icon { display: none }
		.icon:target { display: inline }
		</style>
	</defs>

  <svg viewBox="0 0 16 16" id="chart" class="icon">
		<g>
			<rect x="6" width="4" height="16"/>
			<rect x="12" y="4" width="4" height="12"/>
			<rect x="0" y="8" width="4" height="8"/>
		</g>
	</svg>

  <svg viewBox="0 0 32 32" id="clock" class="icon">
    <g>
      <path d="M20.6,23.3L14,16.7V7.9h4v7.2l5.4,5.4L20.6,23.3z M16-0.1c-8.8,0-16,7.2-16,16s7.2,16,16,16s16-7.2,16-16S24.8-0.1,16-0.1z
        M16,27.9c-6.6,0-12-5.4-12-12s5.4-12,12-12s12,5.4,12,12S22.6,27.9,16,27.9z"/>
    </g>
  </svg>

	<svg viewBox="0 0 128 128" id="facebook" class="icon">
		<path d="M53.68 38.26v15.1H37.11V72h16.57v42h19.61V72H90l2-18.63H73.29V38.26c0-2.67 2.11-4 3-4.82 1.57-1.34 9.15-1.55 9.15-1.55h7.43V15a93.26 93.26 0 00-11.68-1c-28.08 0-27.51 24.26-27.51 24.26z" fill="none" stroke="#062b31" stroke-miterlimit="10" stroke-width="6.5"/>
	</svg>

	<svg viewBox="0 0 128 128" id="twitter" class="icon">
		<path d="M86.94 30.66a19.58 19.58 0 0114 6.17s7.64-1.5 11.86-4.47c0 0-1.06 5.88-8.09 10.38h.06c.54 0 4.48-.1 10.68-3 0 0-1.19 3.39-9.3 9.84.49 15.26-7.06 43.47-35 53.51A56.36 56.36 0 0152 106.52a53.69 53.69 0 01-29.5-8.67c1.5.15 2.85.15 4.2.15 16.52 0 24.52-8.48 24.08-8.48h-.61c-14 0-17.41-13.4-17.41-13.4a6.46 6.46 0 003.73.92 20.4 20.4 0 005-.73c-15.8-3.74-15.21-18.9-15.21-18.9a13.45 13.45 0 007.2 2.26 7 7 0 001.26-.1C20.31 48.15 29 34.52 29 34.52c16.26 18.87 36.25 19.54 39 19.54h.33c-1.48-8.86 2.17-17.37 12-22a15.35 15.35 0 016.54-1.4M122 18l-12.93 9.08a23.93 23.93 0 01-6.34 2.65 26.16 26.16 0 00-15.83-5.54 21.69 21.69 0 00-9.3 2c-9.18 4.31-14.76 11.75-15.87 20.68a49.25 49.25 0 01-27.79-16.59l-5.7-6.61-4.7 7.33a25.19 25.19 0 00-3.4 16.66l-.37 9.53a26.24 26.24 0 005.69 16.68l1 3.9a26.17 26.17 0 008.36 12.89 37.24 37.24 0 01-8.13.86c-1.19 0-2.42-.05-3.66-.15L.1 89.46l18.55 13.63A60.21 60.21 0 0052 113a63 63 0 0021.38-3.8 57.06 57.06 0 0031.7-27.91 68.92 68.92 0 007.57-28.65c6.63-5.71 8.45-9.35 8.94-10.74l5.12-14.57-7 3.26L122 18z" fill="#062b31"/>
	</svg>

</svg>